<svg width="92" height="93" viewBox="0 0 92 93" fill="none" xmlns="http://www.w3.org/2000/svg">
<path d="M18 0V18.0622C18 18.3535 17.9745 18.6443 17.9239 18.9311L13.6407 43.2025C13.5475 43.7307 13.5399 44.2705 13.6182 44.8012L17.9465 74.1371C17.9821 74.3787 18 74.6226 18 74.8669V81.8102L5 92.5V74.8669C5 74.6226 4.9821 74.3787 4.94645 74.1371L0.618208 44.8012C0.539913 44.2705 0.547522 43.7307 0.640742 43.2025L4.92392 18.9311C4.97454 18.6443 5 18.3535 5 18.0622V0H18Z" fill="white"/>
<path d="M43 0V17.2793C43 18.0813 42.8071 18.8716 42.4375 19.5834L30.6155 42.3516C29.911 43.7085 29.866 45.3132 30.4934 46.7075L42.5596 73.5214C42.8499 74.1664 43 74.8658 43 75.5732V81.8102L30 93V75.5732C30 74.8658 29.8499 74.1664 29.5596 73.5214L17.4934 46.7075C16.866 45.3132 16.911 43.7085 17.6155 42.3516L29.4375 19.5834C29.8071 18.8716 30 18.0813 30 17.2793V0H43Z" fill="white"/>
<path d="M67 0V16.7659C67 17.8892 66.6218 18.9797 65.9263 19.8617L48.7741 41.6158C47.421 43.332 47.3392 45.7281 48.5722 47.5325L66.1282 73.2242C66.6962 74.0554 67 75.0385 67 76.0452V81.8102L54 92V76.0452C54 75.0385 53.6962 74.0554 53.1282 73.2242L35.5722 47.5325C34.3392 45.7281 34.421 43.332 35.7741 41.6158L52.9263 19.8617C53.6218 18.9797 54 17.8892 54 16.7659V0H67Z" fill="white" fill-opacity="0.2"/>
<path d="M92 0V15.4563C92 16.7662 91.486 18.0237 90.5684 18.9586L68.7614 41.1771C66.9238 43.0493 66.8457 46.0234 68.5825 47.9896L89.4947 71.6638C91.109 73.4914 92 75.8458 92 78.2842V81.8102L79 93V76.4187C79 75.1835 78.5428 73.992 77.7165 73.0739L55.1734 48.026C53.3944 46.0494 53.4739 43.0261 55.3543 41.1457L77.5355 18.9645C78.4732 18.0268 79 16.755 79 15.4289V0H92Z" fill="white"/>
</svg>
