<svg width="86" height="93" viewBox="0 0 86 93" fill="none" xmlns="http://www.w3.org/2000/svg">
<path d="M12 0V81.8102L0 93V0H12Z" fill="white"/>
<path d="M37 0V17.941C37 18.3125 36.9586 18.6829 36.8766 19.0452L31.2372 43.9521C31.0809 44.6428 31.073 45.3589 31.2141 46.0528L36.8997 74.0068C36.9664 74.3348 37 74.6686 37 75.0033V81.8102L24 93V74.9207C24 74.6407 23.9765 74.3612 23.9297 74.0852L19.1496 45.8828C19.0507 45.2989 19.0562 44.7021 19.166 44.1202L23.9133 18.9595C23.971 18.6538 24 18.3435 24 18.0324V0H37Z" fill="white"/>
<path d="M61 0V17.0474C61 17.9962 60.73 18.9254 60.2216 19.7265L46.0848 42.0028C45.1074 43.543 45.0463 45.4932 45.9253 47.0915L60.3811 73.3747C60.7871 74.1129 61 74.9418 61 75.7843V81.8102L49 93V75.7154C49 74.9167 48.8087 74.1298 48.4421 73.4203L34.7755 46.9687C33.9823 45.4335 34.038 43.5975 34.9229 42.1132L48.2947 19.683C48.7563 18.9088 49 18.0241 49 17.1227V0H61Z" fill="white" fill-opacity="0.2"/>
<path d="M86 0V14.2469C86 16.9645 84.894 19.5651 82.9364 21.4501L62.4822 41.1468C60.5403 43.0167 60.4305 46.0894 62.2339 48.0932L83.4329 71.6477C85.0856 73.484 86 75.8669 86 78.3374V81.8102L73 93V76.4449C73 75.194 72.5311 73.9884 71.6858 73.0663L48.8269 48.1294C46.9813 46.1159 47.0929 42.994 49.0776 41.1175L71.4351 19.9796C72.434 19.0351 73 17.7211 73 16.3463V0H86Z" fill="white"/>
</svg>
