<svg width="92" height="93" viewBox="0 0 92 93" fill="none" xmlns="http://www.w3.org/2000/svg">
<path d="M18 0V18.0622C18 18.3535 17.9745 18.6443 17.9239 18.9311L13.6407 43.2025C13.5475 43.7307 13.5399 44.2705 13.6182 44.8012L17.9465 74.1371C17.9821 74.3787 18 74.6226 18 74.8669V81.8102L6 93V74.9472C6 74.6497 5.97344 74.3527 5.92064 74.0599L0.675644 44.974C0.559673 44.3309 0.570895 43.6713 0.708674 43.0325L5.88761 19.0211C5.96232 18.6747 6 18.3213 6 17.9669V0H18Z" fill="white"/>
<path d="M43 0V17.2793C43 18.0813 42.8071 18.8716 42.4375 19.5834L30.6155 42.3516C29.911 43.7085 29.866 45.3132 30.4934 46.7075L42.5596 73.5214C42.8499 74.1664 43 74.8658 43 75.5732V81.8102L30 93V75.5732C30 74.8658 29.8499 74.1664 29.5596 73.5214L17.4934 46.7075C16.866 45.3132 16.911 43.7085 17.6155 42.3516L29.4375 19.5834C29.8071 18.8716 30 18.0813 30 17.2793V0H43Z" fill="white"/>
<path d="M67 0V16.7659C67 17.8892 66.6218 18.9797 65.9263 19.8617L48.7741 41.6158C47.421 43.332 47.3392 45.7281 48.5722 47.5325L66.1282 73.2242C66.6962 74.0554 67 75.0385 67 76.0452V81.8102L55 93V76.1067C55 75.0619 54.6727 74.0433 54.0641 73.1941L35.7436 47.6307C34.4213 45.7855 34.5079 43.2812 35.9545 41.5318L53.8532 19.8868C54.5945 18.9904 55 17.8636 55 16.7005V0H67Z" fill="white" fill-opacity="0.2"/>
<path d="M92 0V14.2469C92 16.9645 90.894 19.5651 88.9364 21.4501L68.4822 41.1468C66.5403 43.0167 66.4305 46.0894 68.2339 48.0932L89.4329 71.6477C91.0856 73.484 92 75.8669 92 78.3374V81.8102L79 93V76.4449C79 75.194 78.5311 73.9884 77.6858 73.0663L54.8269 48.1294C52.9813 46.1159 53.0929 42.994 55.0776 41.1175L77.4351 19.9796C78.434 19.0351 79 17.7211 79 16.3463V0H92Z" fill="white"/>
</svg>
